<svg xmlns="http://www.w3.org/2000/svg" viewBox="0 0 30.3 30.3">
<path d="m0 26.8v-14.8c0-4.6 3.7-8.3 8.3-8.3h13.7c4.6 0 8.3 3.7 8.3 8.3v2.6c0 4.6-3.7 8.3-8.3 8.3h-13.5l-8.5 4zm8.3-21.3c-3.6 0-6.5 2.9-6.5 6.5v11.9l6.3-2.9h13.9c3.6 0 6.5-2.9 6.5-6.5v-2.6c0-3.6-2.9-6.5-6.5-6.5h-13.7v0zm0.6 6.3c1 0 1.8 0.8 1.8 1.8s-0.8 1.8-1.8 1.8-1.8-0.8-1.8-1.8 0.8-1.8 1.8-1.8zm12.5 0c1 0 1.8 0.8 1.8 1.8s-0.8 1.8-1.8 1.8-1.8-0.8-1.8-1.8 0.8-1.8 1.8-1.8zm-6.2 0c1 0 1.8 0.8 1.8 1.8s-0.8 1.8-1.8 1.8-1.8-0.8-1.8-1.8 0.8-1.8 1.8-1.8z"/>
</svg>
