<?xml version="1.0" encoding="UTF-8"?>
<svg viewBox="0 0 64 64" xmlns="http://www.w3.org/2000/svg">
<path d="M62,1H2A1,1,0,0,0,1,2V62a1,1,0,0,0,1,1H62a1,1,0,0,0,1-1V2A1,1,0,0,0,62,1ZM61,61H3V3H61Z"/>
<path d="M7,18a1,1,0,0,0,1-1V9.414L22.293,23.707a1,1,0,0,0,1.414-1.414L9.414,8H17a1,1,0,0,0,0-2H7A1,1,0,0,0,6,7V17A1,1,0,0,0,7,18Z"/>
<path d="M41,24a1,1,0,0,0,.707-.293L56,9.414V17a1,1,0,0,0,2,0V7a1,1,0,0,0-1-1H47a1,1,0,0,0,0,2h7.586L40.293,22.293A1,1,0,0,0,41,24Z"/>
<path d="M54.586,56H47a1,1,0,0,0,0,2H57a1,1,0,0,0,1-1V47a1,1,0,0,0-2,0v7.586L41.707,40.293a1,1,0,0,0-1.414,1.414Z"/>
<path d="M6.618,57.923A1.01,1.01,0,0,0,7,58H17a1,1,0,0,0,0-2H9.414L23.707,41.707a1,1,0,0,0-1.414-1.414L8,54.586V47a1,1,0,0,0-2,0V57a1,1,0,0,0,.618.923Z"/>
<path d="m23 57a1 1 0 0 0 1 1h12a1 1 0 0 0 0-2h-12a1 1 0 0 0-1 1z"/>
<path d="m39 58h1a1 1 0 0 0 0-2h-1a1 1 0 0 0 0 2z"/>
</svg>
