<?xml version="1.0" encoding="UTF-8"?>
<svg viewBox="0 0 512 512" xmlns="http://www.w3.org/2000/svg" xmlns:xlink="http://www.w3.org/1999/xlink">
<linearGradient id="j" x1="169.99" x2="299.49" y1="71.986" y2="349.05" gradientUnits="userSpaceOnUse">
<stop stop-color="#ff4500" offset="0"/>
<stop stop-color="#dd3400" offset="1"/>
</linearGradient>
<linearGradient id="f">
<stop stop-color="#dd3400" stop-opacity="0" offset="0"/>
<stop stop-color="#bf2800" offset="1"/>
</linearGradient>
<linearGradient id="i" x1="364.28" x2="-379.59" y1="314.09" y2="-84.952" gradientUnits="userSpaceOnUse" xlink:href="#f"/>
<linearGradient id="h" x1="256" x2="256" y1="441.73" y2="500.09" gradientUnits="userSpaceOnUse" xlink:href="#f"/>
<linearGradient id="g" x1="502.57" x2="237.53" y1="486.69" y2="215.63" gradientUnits="userSpaceOnUse" xlink:href="#f"/>
<path d="m420.42 503.23c-109.5 11.688-219.34 11.688-328.84 0-43.664-4.6602-78.152-39.148-82.812-82.816-11.688-109.5-11.688-219.34 0-328.84 4.6602-43.664 39.148-78.152 82.812-82.812 109.5-11.688 219.34-11.688 328.84 0 43.668 4.6602 78.156 39.148 82.816 82.812 11.688 109.5 11.688 219.34 0 328.84-4.6602 43.668-39.145 78.156-82.812 82.816z" fill="url(#j)"/>
<path d="m475.39 110.1c-4.1328-38.746-34.734-69.352-73.484-73.488-97.172-10.367-194.63-10.367-291.8 0-38.746 4.1367-69.352 34.742-73.488 73.488-10.367 97.172-10.367 194.63 0 291.8 4.1367 38.75 34.742 69.355 73.488 73.488 97.172 10.371 194.63 10.371 291.8 0 38.75-4.1328 69.355-34.738 73.488-73.488 10.371-97.168 10.371-194.63 0-291.8z" fill="url(#i)"/>
<path d="m7.6719 409.8c0.35156 3.5391 0.71484 7.0781 1.0938 10.617 4.6602 43.664 39.148 78.152 82.816 82.812 109.5 11.688 219.34 11.688 328.84 0 43.668-4.6602 78.152-39.148 82.812-82.812 0.37891-3.5391 0.74219-7.0781 1.0977-10.617z" fill="url(#h)"/>
<path d="m420.42 503.23c43.668-4.6602 78.152-39.148 82.812-82.816 6.6914-62.688 9.543-125.48 8.5742-188.27l-123.49-123.49c-5.4336-7.6562-14.723-12.227-24.719-11.141-8.4609 0.86719-16.055 5.7969-20.254 13.121l-65.684-13.121c-4.4609-1-8.9258 1.7969-9.9258 6.3281v0.13281l-19.785 92.996c-37.305 0.60156-73.609 12.059-104.52 32.977-15.719-14.789-40.5-14.055-55.289 1.7344-14.789 15.719-14.059 40.5 1.7305 55.289 0.78906 0.73828 1.6094 1.4492 2.4609 2.1289 1.1797 1.4805 2.4727 2.8984 3.8984 4.2305 0.78906 0.73828 1.6094 1.4492 2.4609 2.125 0.49219 0.62109 1.0117 1.2305 1.5508 1.8242-0.085937 2.8477-0.039062 5.6992 0.15234 8.5469 0 24.465 11.629 47.074 31.242 65.273l140.8 140.8c49.355-0.52734 98.703-3.4102 147.99-8.6719z" fill="url(#g)"/>
<path d="m434.48 258.4c-0.79687-21.582-18.918-38.438-40.566-37.703-9.5938 0.33203-18.719 4.2617-25.648 10.855-30.512-20.781-66.352-32.176-103.19-32.973l17.387-83.605 57.359 12.059c1.5977 14.723 14.789 25.379 29.512 23.781 14.723-1.6016 25.379-14.789 23.781-29.512-1.6016-14.723-14.789-25.383-29.512-23.781-8.4609 0.86719-16.055 5.7969-20.254 13.121l-65.684-13.121c-4.4609-1-8.9258 1.7969-9.9258 6.3281v0.13281l-19.785 92.996c-37.305 0.60156-73.609 12.059-104.52 32.977-15.719-14.789-40.5-14.055-55.289 1.7344-14.789 15.719-14.059 40.5 1.7305 55.289 3.0625 2.8672 6.5938 5.332 10.523 7.0625-0.26562 3.9297-0.26562 7.8594 0 11.793 0 60.02 69.949 108.85 156.22 108.85s156.22-48.766 156.22-108.85c0.26562-3.9336 0.26562-7.8633 0-11.793 13.457-6.7266 21.918-20.582 21.648-35.641zm-268 26.848c0-14.789 12.059-26.848 26.848-26.848 14.789 0 26.848 12.059 26.848 26.848 0 14.789-12.059 26.848-26.848 26.848-14.855-0.13281-26.848-12.059-26.848-26.848zm155.68 73.68c-19.051 14.32-42.367 21.648-66.215 20.652-23.852 0.99609-47.168-6.332-66.219-20.652-2.5312-3.0664-2.0664-7.6602 1-10.195 2.6641-2.1953 6.4609-2.1953 9.1914 0 16.121 11.793 35.773 17.789 55.758 16.855 19.984 1.0664 39.707-4.6641 56.027-16.32 2.9297-2.8633 7.7266-2.7969 10.59 0.13281 2.8672 2.9336 2.8008 7.7266-0.13281 10.594zm-4.7969-45.898c-14.789 0-26.844-12.059-26.844-26.848 0-14.789 12.055-26.848 26.844-26.848 14.789 0 26.848 12.059 26.848 26.848 0.60156 14.789-10.926 27.246-25.715 27.844h-1.332z" fill="#fff"/>
</svg>
