<svg id="Layer_1" enable-background="new 0 0 512 512" height="512" viewBox="0 0 512 512" width="512" xmlns="http://www.w3.org/2000/svg"><g><g fill="#cee1f2"><path d="m33.477 301.003c.123-.667-.135.664 0 0z"/><path d="m256 472c-46.696 0-165-50.5-165-146.25 0-3.951 1.217-12.512 1.291-12.873 4.646-23.013 1.984-47.09-7.459-68.981-11.332-25.396 28.668-15.896 67.168-45.396l82.634-39.035c-1.664.458-3.388.777-5.164.931-32.707 2.844-63.266 10.882-90.135 22.966-13.82 6.215-29.606 6.622-43.644.915-6.869-2.793-14.43-4.237-22.356-4.003-29.146.861-52.797 24.801-53.326 53.955-.183 10.114 2.366 19.616 6.957 27.821 6.642 11.87 9.203 25.62 6.511 38.953-1.378 7.438-2.477 17.029-2.477 24.747 0 91.955 100.736 166.25 225 166.25.055 0 .109-.001.164-.001z"/></g><g fill="#0023c4"><path d="m511.988 233.866c-.35-19.262-8.058-37.474-21.704-51.282-13.648-13.812-31.771-21.731-51.031-22.301-10.425-.311-20.607 1.497-30.224 5.364-9.064 3.645-19.267 3.48-27.992-.449-14.968-6.744-30.922-12.278-47.421-16.447-10.709-2.702-21.583 3.783-24.29 14.491-2.706 10.709 3.782 21.584 14.491 24.29 14.229 3.596 27.952 8.352 40.788 14.136 18.605 8.381 40.238 8.778 59.352 1.09 4.47-1.798 9.215-2.632 14.116-2.492 18.37.543 33.588 15.942 33.921 34.325.114 6.311-1.46 12.513-4.552 17.937-9.064 15.902-12.072 34.619-8.469 52.703 1.345 6.751 2.026 13.655 2.026 20.52 0 37.949-20.521 74.003-57.782 101.52-39.06 28.843-91.343 44.729-147.217 44.729-55.875 0-108.158-15.886-147.218-44.73-37.262-27.516-57.782-63.57-57.782-101.52 0-6.388.917-14.498 2.082-20.789 3.559-17.627.482-36.334-8.662-52.676-3-5.362-4.527-11.48-4.414-17.693.333-18.385 15.55-33.783 33.92-34.326 4.945-.151 9.729.708 14.232 2.539 18.927 7.695 40.57 7.257 59.379-1.202 25.619-11.521 53.768-18.682 83.665-21.282 12.3-1.069 23.659-6.71 31.985-15.882 8.262-9.104 12.813-20.89 12.813-33.188 0-44.803 37.198-86.251 82-86.251 11.046 0 20-8.954 20-20s-8.954-20-20-20c-66.857 0-122 59.393-122 126.25 0 4.768-3.629 8.817-8.263 9.221-34.38 2.99-66.883 11.284-96.605 24.651-8.887 3.997-19.059 4.227-27.908.628-9.688-3.938-19.946-5.779-30.48-5.467-19.258.569-37.38 8.489-51.029 22.301-13.646 13.809-21.353 32.022-21.703 51.282-.241 13.288 3.043 26.411 9.5 37.951 4.479 8.005 6.028 16.965 4.36 25.222-1.608 8.689-2.872 19.886-2.872 28.711 0 50.967 26.288 98.448 74.02 133.697 45.891 33.889 106.613 52.553 170.98 52.553 64.366 0 125.088-18.664 170.979-52.553 47.734-35.249 74.021-82.73 74.021-133.697 0-9.482-.941-19.015-2.798-28.335-1.721-8.639-.304-17.545 3.99-25.076 6.652-11.669 10.039-24.972 9.796-38.473z"/><path d="m13.873 297.039c.144-.774-.156.771 0 0z"/><path d="m188.93 350.348c-3.541-5.617-9.8-9.348-16.93-9.348-11.046 0-20 8.954-20 20 0 4.14 1.258 7.986 3.412 11.177 3.758 5.709 39.136 56.823 100.588 56.823 61.502 0 96.889-51.198 100.597-56.837 2.148-3.188 3.403-7.029 3.403-11.163 0-11.046-8.954-20-20-20-7.098 0-13.332 3.698-16.882 9.271-1.407 2.097-26.647 38.729-67.118 38.729-40.467 0-65.706-36.624-67.07-38.652z"/></g><path d="m441 0c13.807 0 25 11.193 25 25s-11.193 25-25 25-25-11.193-25-25 11.193-25 25-25zm-294.121 307.304c12.066-10.156 23.718-15.304 34.638-15.304.16 0 27.482.002 27.482.002 11.046 0 20-8.954 20-20s-8.954-20-20-20c0 0-27.308-.002-27.5-.002-20.591 0-40.904 8.309-60.379 24.7-8.451 7.113-9.536 19.729-2.423 28.181 3.957 4.7 9.614 7.121 15.312 7.121 4.547 0 9.119-1.542 12.87-4.698zm246.966-4.1c6.739-8.751 5.108-21.309-3.643-28.049-20.454-15.753-41.445-23.522-62.401-23.141l-24.791-.014c-.004 0-.007 0-.011 0-11.04 0-19.994 8.947-20 19.989-.006 11.046 8.943 20.005 19.989 20.011l25 .014c.11.012.3-.002.451-.005 11.677-.254 24.24 4.734 37.356 14.837 3.636 2.8 7.929 4.155 12.188 4.155 5.995.001 11.923-2.682 15.862-7.797z" fill="#de5cee"/></g></svg>